<svg height="512pt" viewBox="0 -79 512 512" width="512pt" xmlns="http://www.w3.org/2000/svg"><path d="m7.5 43.160156v252.871094h49.273438c-.125-28.070312 22.605468-50.800781 50.578124-50.800781 27.960938 0 50.707032 22.71875 50.582032 50.800781h162.078125v-252.871094zm0 0" fill="#b47e7f"/><path d="m33 83.703125h243v122h-243zm0 0" fill="#b5e5f9"/><path d="m33 83.703125h20v122h-20zm0 0" fill="#89d7f5"/><path d="m449.964844 295.816406c0 27.941406-22.648438 50.585938-50.585938 50.585938s-50.585937-22.644532-50.585937-50.585938c0-27.9375 22.648437-50.585937 50.585937-50.585937s50.585938 22.648437 50.585938 50.585937zm0 0" fill="#58565b"/><path d="m439.882812 106.226562h-119.871093v189.804688h28.785156c-.121094-28.070312 22.609375-50.800781 50.582031-50.800781 27.960938 0 50.703125 22.71875 50.578125 50.800781h54.542969v-82.839844zm0 0" fill="#e21743"/><path d="m347.015625 193.078125v-55.398437h76.253906l33.011719 55.398437zm0 0" fill="#b5e5f9"/><path d="m157.9375 295.816406c0 27.941406-22.648438 50.585938-50.585938 50.585938s-50.585937-22.644532-50.585937-50.585938c0-27.9375 22.648437-50.585937 50.585937-50.585937s50.585938 22.648437 50.585938 50.585937zm0 0" fill="#58565b"/><path d="m125.382812 295.816406c0 9.960938-8.070312 18.03125-18.03125 18.03125-9.957031 0-18.027343-8.070312-18.027343-18.03125 0-9.957031 8.070312-18.027344 18.027343-18.027344 9.960938 0 18.03125 8.070313 18.03125 18.027344zm0 0" fill="#dedddf"/><path d="m417.40625 295.816406c0 9.960938-8.070312 18.03125-18.027344 18.03125-9.957031 0-18.03125-8.070312-18.03125-18.03125 0-9.957031 8.074219-18.027344 18.03125-18.027344 9.957032 0 18.027344 8.070313 18.027344 18.027344zm0 0" fill="#dedddf"/><path d="m472.210938 231.210938h32.289062v37.398437h-32.289062zm0 0" fill="#fee94f"/><path d="m33 83.703125v41.492187l15.199219 14.28125h18.199219l15.203124-14.28125v-41.492187zm0 0" fill="#e21743"/><path d="m81.601562 83.703125v41.492187l15.199219 14.28125h18.199219l15.199219-14.28125v-41.492187zm0 0" fill="#7fe895"/><path d="m130.199219 83.703125v41.492187l15.199219 14.28125h18.203124l15.199219-14.28125v-41.492187zm0 0" fill="#f5fedf"/><path d="m287 42.5v-20.71875l-15.199219-14.28125h-218.203125l-15.199218 14.28125v20.71875zm0 0" fill="#f8d5a8"/><path d="m178.800781 83.703125v41.492187l15.199219 14.28125h18.199219l15.199219-14.28125v-41.492187zm0 0" fill="#7fe895"/><path d="m227.398438 83.703125v41.492187l15.203124 14.28125h18.199219l15.199219-14.28125v-41.492187zm0 0" fill="#e21743"/><path d="m33 178.703125h243v27h-243zm0 0" fill="#f5fedf"/><path d="m368.792969 295.816406c0-24.511718 17.4375-44.949218 40.585937-49.589844-31.417968-6.300781-60.585937 17.730469-60.585937 49.589844 0 31.90625 29.195312 55.886719 60.585937 49.59375-23.148437-4.640625-40.585937-25.078125-40.585937-49.59375zm0 0" fill="#474549"/><path d="m320.011719 106.226562h20v189.804688h-20zm0 0" fill="#c41239"/><path d="m409.378906 246.226562c23.550782 4.722657 40.746094 25.621094 40.578125 49.804688h20c.21875-31.671875-28.867187-56.164062-60.578125-49.804688zm0 0" fill="#c41239"/><path d="m347.015625 137.679688h20v55.398437h-20zm0 0" fill="#89d7f5"/><path d="m76.769531 295.816406c0-24.511718 17.4375-44.949218 40.585938-49.589844-31.417969-6.300781-60.585938 17.730469-60.585938 49.589844 0 31.90625 29.195313 55.886719 60.585938 49.59375-23.148438-4.640625-40.585938-25.078125-40.585938-49.59375zm0 0" fill="#474549"/><path d="m117.351562 280.816406c-2.859374-1.910156-6.296874-3.027344-10-3.027344-9.957031 0-18.03125 8.070313-18.03125 18.027344 0 9.957032 8.074219 18.03125 18.03125 18.03125 3.703126 0 7.140626-1.117187 10-3.027344-10.703124-7.152343-10.699218-22.851562 0-30.003906zm0 0" fill="#bcbbbe"/><path d="m409.378906 280.816406c-2.863281-1.910156-6.300781-3.027344-10-3.027344-9.957031 0-18.03125 8.070313-18.03125 18.027344 0 9.957032 8.074219 18.03125 18.03125 18.03125 3.699219 0 7.136719-1.117187 10-3.027344-10.707031-7.152343-10.703125-22.851562 0-30.003906zm0 0" fill="#bcbbbe"/><path d="m7.5 43.160156h20v252.871094h-20zm0 0" fill="#965859"/><path d="m117.351562 246.226562c23.050782 4.621094 40.667969 25 40.582032 49.804688h20c.109375-32.21875-29.304688-56.078125-60.582032-49.804688zm0 0" fill="#965859"/><path d="m472.210938 231.210938h20v37.398437h-20zm0 0" fill="#fde31d"/><path d="m53 125.195312v-41.492187h-20v41.492187l15.199219 14.28125h18.199219l.902343-.84375zm0 0" fill="#c41239"/><path d="m101.601562 125.195312v-41.492187h-20v41.492187l15.199219 14.28125h18.199219l.898438-.84375zm0 0" fill="#52cd8d"/><path d="m150.199219 125.195312v-41.492187h-20v41.492187l15.199219 14.28125h18.203124l.898438-.84375zm0 0" fill="#ebfdbe"/><path d="m73.597656 7.5h-20l-15.199218 14.28125v20.71875h20v-20.71875zm0 0" fill="#f5bd74"/><path d="m198.800781 125.195312v-41.492187h-20v41.492187l15.199219 14.28125h18.199219l.902343-.84375zm0 0" fill="#52cd8d"/><path d="m247.398438 125.195312v-41.492187h-20v41.492187l15.203124 14.28125h18.199219l.898438-.84375zm0 0" fill="#c41239"/><path d="m33 178.703125h20v27h-20zm0 0" fill="#ebfdbe"/><path d="m339.515625 200.578125h129.96875l-41.953125-70.398437h-88.015625zm15-55.398437h64.492187l24.074219 40.398437h-88.566406zm0 0"/><path d="m107.355469 270.285156c-14.078125 0-25.53125 11.453125-25.53125 25.53125s11.453125 25.53125 25.53125 25.53125c14.074219 0 25.527343-11.453125 25.527343-25.53125 0-14.074218-11.453124-25.53125-25.527343-25.53125zm0 36.0625c-5.808594 0-10.53125-4.722656-10.53125-10.53125 0-5.804687 4.722656-10.527344 10.53125-10.527344 5.804687 0 10.527343 4.722657 10.527343 10.527344 0 5.808594-4.722656 10.53125-10.527343 10.53125zm0 0"/><path d="m399.378906 270.285156c-14.078125 0-25.53125 11.453125-25.53125 25.53125s11.453125 25.53125 25.53125 25.53125c14.074219 0 25.527344-11.453125 25.527344-25.53125 0-14.074218-11.453125-25.53125-25.527344-25.53125zm0 36.0625c-5.808594 0-10.53125-4.722656-10.53125-10.53125 0-5.804687 4.722656-10.527344 10.53125-10.527344 5.804688 0 10.527344 4.722657 10.527344 10.527344 0 5.808594-4.722656 10.53125-10.527344 10.53125zm0 0"/><path d="m444.109375 98.726562h-45.710937v15h37.25l61.351562 101.558594v8.425782h-32.289062v52.398437h32.289062v12.414063h-39.996094c-3.238281-25.699219-23.441406-46.402344-49.179687-50.171876-32.632813-4.773437-62.085938 18.476563-66.078125 50.171876h-14.234375v-174.796876h50.140625v-15h-50.140625v-63.0625h-33.011719v-17.125l-19.730469-18.539062h-224.140625l-19.730468 18.539062v17.125h-30.898438v267.859376h49.796875c3.78125 28.398437 28.144531 50.378906 57.558594 50.378906 29.414062 0 53.773437-21.980469 57.554687-50.378906h62.488282v-15h-62.414063c-3.355469-26.660157-24.957031-47.894532-51.996094-50.511719-31.507812-3.050781-59.390625 19.703125-63.265625 50.511719h-34.722656v-237.859376h297.511719v237.859376h-64.363281v15h93.671874c3.78125 28.398437 28.144532 50.378906 57.558594 50.378906 29.414063 0 53.773438-21.980469 57.558594-50.378906h55.0625c0-10.9375 0-80.542969 0-92.417969zm-398.210937-73.699218 10.671874-10.027344h212.257813l10.671875 10.027344v9.972656h-233.601562zm61.457031 313.875c-23.757813 0-43.085938-19.324219-43.085938-43.085938 0-23.753906 19.324219-43.082031 43.082031-43.082031 11.667969 0 23.066407 4.71875 31.457032 13.683594 25.878906 27.671875 5.855468 72.484375-31.453125 72.484375zm292.023437 0c-26.992187 0-47.480468-24.65625-42.285156-51.335938 3.878906-19.84375 21.351562-34.828125 42.285156-34.828125 23.757813 0 43.082032 19.324219 43.082032 43.078125 0 23.660156-19.226563 43.085938-43.082032 43.085938zm80.332032-77.792969v-22.398437h17.289062v22.398437zm0 0"/><path d="m283.5 76.203125c-59.597656 0-198.675781 0-258 0v137h258c0-14.003906 0-121 0-137zm-15 15v30.746094l-10.671875 10.027343h-12.257813l-10.671874-10.027343v-30.746094zm-48.601562 0v30.746094l-10.667969 10.027343h-12.261719l-10.667969-10.027343v-30.742188h33.597657zm-48.597657 0v30.746094l-10.671875 10.027343h-12.257812l-10.671875-10.027343v-30.746094zm-48.601562 0v30.746094l-10.671875 10.027343h-12.257813l-10.667969-10.027343v-30.742188h33.597657zm-82.199219 0h33.601562v30.746094l-10.671874 10.027343h-12.257813l-10.671875-10.027343zm0 51.332031 4.730469 4.441406h24.140625l12.230468-11.492187 12.226563 11.492187h24.144531l12.226563-11.492187 12.230469 11.492187h24.140624l12.230469-11.492187 12.230469 11.492187h24.140625l12.230469-11.492187 12.226562 11.492187h24.144532l4.730468-4.441406v28.671875h-228v-28.671875zm228 55.667969h-228v-12h228zm0 0"/><path d="m274.558594 257.410156h-15v-15h15zm-25 0h-15v-15h15zm0 0" fill="#fff"/></svg>